<?xml version="1.0" standalone="no"?>
<!DOCTYPE svg PUBLIC "-//W3C//DTD SVG 20010904//EN"
 "http://www.w3.org/TR/2001/REC-SVG-20010904/DTD/svg10.dtd">
<svg version="1.0" xmlns="http://www.w3.org/2000/svg"
 width="2051.000000pt" height="2048.000000pt" viewBox="0 0 2051.000000 2048.000000"
 preserveAspectRatio="xMidYMid meet">

<g transform="translate(0.000000,2048.000000) scale(0.100000,-0.100000)"
fill="#000000" stroke="none">
<path d="M1332 20415 c31 -42 262 -324 842 -1030 703 -855 2434 -2970 3192
-3900 1321 -1621 1678 -2066 1711 -2134 99 -201 -39 -382 -377 -491 -176 -57
-317 -73 -432 -49 -74 15 -223 90 -283 141 -108 94 -338 435 -1397 2073 -808
1248 -956 1476 -971 1490 -19 19 72 -147 953 -1725 579 -1037 802 -1443 927
-1690 l94 -185 -3 -70 c-5 -94 -27 -137 -152 -287 -56 -67 -121 -150 -143
-183 -143 -213 -231 -498 -293 -955 -65 -480 -138 -739 -305 -1071 -168 -335
-354 -605 -808 -1177 -353 -445 -435 -567 -537 -803 -93 -216 -122 -390 -123
-739 0 -299 36 -505 142 -813 83 -238 152 -371 386 -747 255 -410 345 -590
345 -691 0 -45 25 -51 126 -34 409 72 887 224 1237 395 487 237 865 576 952
853 32 99 50 300 41 447 -18 285 -168 492 -560 773 -298 214 -408 299 -505
392 -278 267 -394 538 -378 886 9 215 60 364 295 874 264 571 323 779 372
1315 46 495 76 598 214 736 112 112 188 141 497 189 469 72 729 183 967 410
192 183 269 340 292 597 5 57 9 136 10 177 l0 74 -69 81 c-196 230 -1663 1852
-3520 3891 -1938 2127 -2818 3085 -2739 2980z m2840 -12514 c74 -36 133 -94
170 -169 30 -61 33 -74 33 -162 0 -82 -4 -103 -26 -151 -69 -147 -214 -229
-334 -189 -54 18 -113 75 -125 121 -14 49 -6 78 42 166 56 103 52 135 -22 184
-82 54 -95 115 -38 176 52 55 207 68 300 24z"/>
<path d="M7078 16583 c-59 -7 -45 -20 35 -33 430 -70 702 -153 997 -303 522
-265 964 -672 1543 -1419 361 -467 421 -544 543 -693 551 -673 904 -957 1436
-1154 465 -172 896 -246 1728 -296 350 -21 512 -33 670 -51 497 -56 794 -174
1044 -414 97 -93 199 -219 272 -336 26 -41 48 -73 50 -71 6 6 -26 209 -46 296
-113 478 -459 1107 -846 1538 l-68 76 -47 -189 c-50 -205 -80 -294 -141 -421
-80 -168 -205 -320 -300 -363 -56 -26 -149 -26 -204 -1 -98 45 -166 145 -167
246 -1 40 9 72 50 160 101 219 127 345 126 615 -1 257 -43 547 -89 618 -9 13
-59 52 -112 86 -533 344 -1148 571 -1807 665 -286 41 -363 46 -750 45 -409 0
-527 -9 -897 -70 -87 -14 -162 -24 -167 -22 -4 2 -78 80 -163 173 -758 831
-1370 1195 -2188 1300 -125 16 -432 27 -502 18z"/>
<path d="M14020 16208 c-107 -231 -147 -410 -175 -793 -18 -240 -22 -271 -41
-302 -24 -38 -60 -30 -339 75 -293 110 -853 278 -824 248 3 -3 109 -55 235
-114 559 -264 871 -476 988 -669 117 -195 151 -428 143 -978 -4 -340 -4 -340
-61 -488 -44 -115 -27 -118 30 -4 129 255 175 480 193 935 10 263 17 295 72
335 27 19 27 19 80 -7 102 -52 484 -353 725 -573 71 -65 124 -111 118 -103
-189 251 -307 386 -662 759 -338 353 -398 437 -447 624 -47 179 -69 363 -69
592 0 227 6 277 55 443 17 57 29 105 27 108 -3 2 -24 -37 -48 -88z"/>
<path d="M6996 16133 c-17 -133 -18 -421 -2 -563 47 -399 148 -742 326 -1105
190 -387 423 -668 738 -891 253 -179 545 -280 713 -245 116 24 119 80 12 247
-183 284 -297 514 -346 694 -19 69 -65 257 -101 418 -132 579 -220 809 -387
1016 -97 122 -241 231 -397 303 -154 71 -379 145 -513 167 l-36 6 -7 -47z"/>
<path d="M10993 12558 c4 -193 10 -308 21 -361 73 -371 212 -639 470 -906 395
-407 930 -710 2084 -1180 1151 -469 1629 -730 1957 -1072 239 -248 372 -534
404 -872 14 -138 20 -150 53 -106 60 80 202 406 252 580 56 197 86 471 86 799
0 277 -24 449 -97 690 -263 870 -953 1490 -1993 1789 -300 86 -594 145 -1130
226 -751 113 -1093 182 -1380 280 -237 81 -397 169 -625 346 -49 38 -94 69
-99 69 -4 0 -6 -125 -3 -282z"/>
<path d="M8045 12104 c-241 -34 -458 -228 -564 -503 -23 -60 -25 -80 -25 -221
-1 -198 15 -257 86 -335 28 -31 72 -65 101 -79 135 -66 479 -56 747 20 47 14
135 49 196 79 86 42 127 69 187 125 104 97 132 154 131 270 -2 142 -61 270
-189 408 -116 125 -242 195 -400 221 -73 12 -229 21 -270 15z m302 -118 c64
-20 137 -69 177 -119 40 -50 48 -134 18 -194 -65 -126 -290 -204 -458 -159
-168 45 -279 161 -255 268 40 173 293 273 518 204z"/>
<path d="M12045 10287 c39 -123 89 -353 106 -490 17 -141 6 -425 -20 -542 -31
-132 -57 -207 -116 -330 -148 -309 -405 -552 -760 -721 -221 -105 -398 -149
-1065 -264 -774 -134 -1036 -204 -1369 -365 -246 -120 -500 -274 -454 -275 7
0 77 21 155 46 435 139 768 188 1618 239 465 28 681 55 910 111 360 89 630
225 867 437 227 202 372 419 466 697 46 133 57 227 57 467 0 236 -10 314 -61
468 -72 220 -186 422 -325 579 l-42 46 33 -103z"/>
<path d="M12820 9965 c-31 -37 -75 -245 -91 -429 -24 -283 30 -614 153 -926
117 -298 214 -466 698 -1200 414 -629 525 -810 660 -1079 85 -171 139 -305
179 -450 58 -205 66 -267 66 -506 0 -194 -3 -232 -23 -325 -34 -152 -76 -277
-144 -428 -65 -146 -90 -212 -81 -212 15 0 267 138 353 194 510 329 889 844
1081 1471 73 237 101 478 102 860 0 265 -9 337 -68 571 -102 400 -282 718
-574 1018 -285 291 -618 524 -1246 871 -662 365 -744 412 -944 534 -91 55
-102 59 -121 36z"/>
<path d="M8660 6800 c-664 -68 -1473 -410 -2127 -899 -163 -122 -414 -329
-420 -346 -2 -6 96 -26 230 -48 541 -89 811 -177 1072 -351 165 -111 280 -211
610 -536 165 -163 332 -319 370 -348 97 -72 229 -135 365 -174 109 -31 123
-33 280 -33 195 0 244 11 397 86 210 103 362 295 407 512 31 149 15 377 -33
490 -67 155 -251 297 -443 342 -82 19 -238 19 -313 0 -233 -61 -381 -290 -321
-497 20 -70 83 -143 151 -174 74 -35 101 -30 35 7 -107 59 -142 116 -142 233
0 99 27 160 102 229 132 123 328 139 518 43 189 -95 262 -212 262 -416 0 -163
-46 -276 -160 -391 -115 -116 -221 -160 -389 -160 -237 1 -529 166 -647 367
-205 350 -44 806 344 969 115 48 194 66 328 72 308 15 580 -88 866 -326 214
-179 392 -458 622 -981 95 -215 223 -478 283 -581 149 -256 395 -502 610 -609
179 -89 318 -120 533 -120 233 0 415 45 638 160 158 80 385 230 371 245 -3 3
-70 -17 -149 -45 -78 -28 -179 -60 -224 -71 -356 -91 -677 -72 -921 54 -209
109 -376 364 -464 712 -11 44 -50 258 -86 475 -36 217 -79 457 -96 535 -133
606 -409 1006 -883 1280 -265 152 -539 242 -854 281 -148 18 -597 27 -722 14z"/>
</g>
</svg>
